<?xml version="1.0" standalone="no"?>
<!DOCTYPE svg PUBLIC "-//W3C//DTD SVG 20010904//EN"
 "http://www.w3.org/TR/2001/REC-SVG-20010904/DTD/svg10.dtd">
<svg version="1.0" xmlns="http://www.w3.org/2000/svg"
 width="640.000000pt" height="640.000000pt" viewBox="0 0 640.000000 640.000000"
 preserveAspectRatio="xMidYMid meet">
<metadata>
Created by potrace 1.14, written by Peter Selinger 2001-2017
</metadata>
<g transform="translate(0.000000,640.000000) scale(0.100000,-0.100000)"
fill="#000000" stroke="none">
<path d="M0 6370 c0 -23 4 -30 20 -30 18 0 40 26 40 49 0 6 -13 11 -30 11 -27
0 -30 -3 -30 -30z"/>
<path d="M540 6161 c0 -181 -3 -242 -12 -248 -7 -4 -98 -8 -203 -9 -104 0
-220 -1 -257 -2 l-68 -2 0 -1080 0 -1080 224 0 c123 0 244 3 269 6 l45 6 -3
1061 c-1 584 0 1067 2 1074 4 10 113 13 527 13 l521 0 1 -258 c0 -142 3 -263
7 -269 6 -9 261 -12 1080 -10 l1072 2 -2 269 -2 269 -1063 -2 c-896 -2 -1066
0 -1082 12 -17 13 -18 29 -17 250 l2 237 -520 0 -521 0 0 -239z"/>
<path d="M3750 6150 l0 -250 263 -2 262 -3 3 -525 c1 -293 6 -528 11 -533 5
-5 121 -10 258 -11 136 0 254 -5 261 -9 9 -6 12 -65 10 -254 -2 -134 -6 -249
-9 -255 -4 -6 -94 -9 -235 -8 -126 0 -244 -2 -261 -6 l-33 -6 0 -263 c0 -228
2 -264 15 -269 9 -3 129 -4 268 -2 l252 4 0 271 0 271 262 -1 c145 0 265 -4
268 -9 7 -12 6 -1042 -1 -1049 -3 -3 -240 -7 -526 -8 -296 0 -524 -5 -529 -10
-5 -5 -8 -123 -7 -269 l3 -259 265 -5 265 -5 0 -260 0 -260 -803 -3 -802 -2 2
-268 3 -267 800 0 800 0 2 258 c1 143 4 262 8 265 4 4 122 7 263 7 l257 0 5
527 c3 289 8 530 12 534 4 4 122 8 262 8 247 1 255 0 260 -19 3 -11 6 -369 6
-796 l0 -776 -70 -7 c-38 -4 -149 -7 -247 -6 -98 1 -188 1 -200 1 l-23 -1 -2
-262 -3 -263 -280 -5 c-417 -8 -2832 -9 -2888 -2 l-48 7 0 257 0 257 -42 6
c-23 3 -139 4 -258 3 -233 -3 -260 2 -238 43 6 13 9 104 7 247 l-3 227 -258 3
c-243 2 -258 1 -255 -15 3 -16 15 -18 93 -17 50 1 68 -1 40 -2 -27 -2 -69 -6
-92 -10 l-43 -5 -1 -227 c-1 -125 -4 -251 -7 -280 -8 -58 -25 -71 -26 -20 -1
22 -6 34 -18 36 -14 3 -16 -2 -11 -31 3 -21 1 -37 -7 -42 -16 -10 -20 -3 -24
41 l-4 39 -491 3 c-421 2 -491 0 -491 -12 0 -12 28 -16 148 -20 81 -3 171 -8
200 -12 35 -4 58 -2 65 5 14 14 147 15 147 1 0 -6 33 -10 80 -10 44 0 80 -4
80 -8 0 -4 -36 -8 -81 -9 -44 0 -86 -6 -92 -12 -14 -14 -27 -14 -27 0 0 5 4 8
9 5 5 -3 13 0 19 7 9 10 -44 13 -269 14 -174 2 -279 -1 -279 -7 0 -9 214 -17
260 -10 8 1 12 -1 8 -6 -5 -4 -66 -6 -138 -5 l-130 2 0 -190 0 -190 123 -4
122 -3 -122 -2 c-74 -1 -123 -6 -123 -12 0 -6 94 -10 261 -10 171 0 258 -3
254 -10 -4 -6 -102 -10 -261 -10 l-254 0 0 -270 0 -270 273 0 273 0 -1 268 c0
147 -4 273 -8 280 -6 8 -2 12 12 12 17 0 20 -5 17 -32 -3 -18 -2 -52 1 -76 5
-34 8 -40 19 -31 11 9 14 8 14 -6 0 -14 3 -15 14 -6 11 9 14 -2 19 -61 4 -46
3 -74 -4 -77 -12 -4 21 -30 39 -31 6 0 12 7 12 15 0 8 5 15 10 15 6 0 10 -30
10 -70 0 -70 0 -71 -30 -76 -21 -5 -30 -12 -30 -25 0 -11 7 -19 15 -19 20 0
19 -10 -3 -26 -12 -10 -12 -12 -2 -9 11 4 15 -2 16 -20 2 -24 0 -25 -56 -25
-51 0 -58 -2 -64 -22 -3 -13 -6 -139 -6 -280 l0 -258 2133 0 2134 0 6 101 c6
92 2 288 -7 414 l-4 50 271 0 272 0 2 145 c1 80 2 192 3 250 0 58 5 112 10
120 8 13 49 15 247 18 131 1 246 2 256 2 16 0 17 18 17 248 0 138 4 254 10
262 8 13 50 15 260 18 l250 3 0 800 0 800 -238 -2 c-164 -1 -246 2 -260 10
l-22 12 -2 525 -3 525 -257 -1 c-198 0 -258 2 -265 12 -4 7 -6 124 -5 259 3
197 1 248 -9 255 -8 4 -117 7 -244 6 -126 -1 -242 0 -257 4 l-27 5 2 522 c1
287 -2 528 -6 535 -6 9 -71 12 -268 12 l-259 0 0 245 0 245 -265 0 -265 0 0
-250z m-2181 -4276 c1 -155 -2 -203 -12 -207 -10 -4 -11 17 -5 96 4 55 4 156
0 225 -4 68 -5 126 -2 128 13 13 18 -56 19 -242z m-211 229 c-16 -2 -40 -2
-55 0 -16 2 -3 4 27 4 30 0 43 -2 28 -4z m213 -531 c-13 -2 -21 -11 -21 -22 0
-29 -60 -36 -158 -21 -2 1 -2 13 0 28 3 30 28 44 29 16 0 -15 1 -16 7 -2 4 10
18 15 34 15 14 -1 24 2 22 6 -3 4 -2 8 3 9 22 2 57 10 61 14 3 3 14 -5 24 -18
20 -22 20 -22 -1 -25z m-601 18 c0 -6 -53 -9 -142 -8 -127 1 -134 2 -63 8 134
11 205 11 205 0z m150 -15 c0 -14 -4 -25 -9 -25 -12 0 -23 29 -15 41 10 18 24
9 24 -16z m133 -5 c5 -4 -17 -7 -50 -5 -68 3 -66 2 -58 14 6 11 96 4 108 -9z
m420 3 c-7 -2 -19 -2 -25 0 -7 3 -2 5 12 5 14 0 19 -2 13 -5z m350 0 c-40 -2
-106 -2 -145 0 -40 1 -8 3 72 3 80 0 112 -2 73 -3z m-1059 -14 c3 -3 -34 -10
-82 -17 -134 -18 -182 -20 -182 -10 0 5 4 7 9 3 5 -3 12 -1 15 3 3 5 18 8 33
7 14 0 45 4 68 10 43 11 130 14 139 4z m651 -19 c3 -5 -3 -10 -14 -10 -18 0
-21 -7 -23 -47 -2 -47 -1 -64 3 -113 4 -53 -1 -121 -10 -116 -9 6 -15 105 -12
201 2 70 35 119 56 85z m488 -4 c4 -10 1 -13 -9 -9 -15 6 -19 23 -5 23 5 0 11
-7 14 -14z m-1613 -8 c0 -4 -15 -5 -32 -1 -47 8 -49 14 -5 11 20 -1 37 -6 37
-10z m853 5 c-13 -2 -33 -2 -45 0 -13 2 -3 4 22 4 25 0 35 -2 23 -4z m330 0
c-7 -2 -19 -2 -25 0 -7 3 -2 5 12 5 14 0 19 -2 13 -5z m-693 -25 c0 -5 -15 -8
-33 -7 -48 4 -55 -4 -47 -56 6 -37 4 -45 -9 -45 -14 0 -14 -2 -1 -10 8 -5 10
-10 5 -10 -17 0 -45 39 -45 63 0 12 7 33 16 45 14 21 14 22 -8 23 -18 0 -20 2
-6 7 25 10 128 2 128 -10z m60 2 c0 -5 -4 -10 -10 -10 -5 0 -10 5 -10 10 0 6
5 10 10 10 6 0 10 -4 10 -10z m484 -84 c-3 -9 -10 -13 -16 -10 -5 3 -4 12 3
20 15 18 22 13 13 -10z m-989 -266 c3 -5 -3 -10 -15 -10 -12 0 -18 5 -15 10 3
6 10 10 15 10 5 0 12 -4 15 -10z m62 -132 c-2 -18 -4 -4 -4 32 0 36 2 50 4 33
2 -18 2 -48 0 -65z m1513 42 c0 -5 -4 -10 -10 -10 -5 0 -10 5 -10 10 0 6 5 10
10 10 6 0 10 -4 10 -10z m-1483 -37 c-3 -10 -5 -4 -5 12 0 17 2 24 5 18 2 -7
2 -21 0 -30z m4181 -221 c0 -92 -5 -155 -11 -159 -7 -4 -8 46 -3 155 5 108 4
162 -3 167 -13 7 -15 68 -3 79 13 13 21 -84 20 -242z m-2610 231 c-10 -2 -28
-2 -40 0 -13 2 -5 4 17 4 22 1 32 -1 23 -4z m2529 0 c-8 -7 -119 -5 -126 3 -2
2 26 4 64 4 38 0 65 -3 62 -7z m-2502 -43 c-3 -5 -15 -10 -26 -10 -11 0 -17 5
-14 10 3 6 15 10 26 10 11 0 17 -4 14 -10z m-85 -10 c0 -5 -4 -10 -9 -10 -6 0
-13 5 -16 10 -3 6 1 10 9 10 9 0 16 -4 16 -10z m2620 6 c0 -3 -4 -8 -10 -11
-5 -3 -10 -1 -10 4 0 6 5 11 10 11 6 0 10 -2 10 -4z m-3 -93 c-2 -16 -4 -5 -4
22 0 28 2 40 4 28 2 -13 2 -35 0 -50z m-3220 -120 c-3 -10 -5 -4 -5 12 0 17 2
24 5 18 2 -7 2 -21 0 -30z m-97 -43 c9 -17 14 -18 33 -7 12 6 25 17 29 22 4 6
8 1 8 -10 0 -17 2 -17 10 -5 8 13 10 12 10 -2 0 -10 6 -18 13 -18 9 0 9 -2 -1
-8 -15 -10 -109 -16 -99 -6 9 9 -12 34 -29 34 -8 0 -14 -4 -14 -10 0 -5 7 -10
16 -10 8 0 12 -4 9 -10 -3 -5 -44 -10 -91 -10 l-84 0 0 -30 0 -30 -67 -2 -68
-2 68 -3 c47 -3 67 -8 64 -16 -5 -16 -116 -17 -132 -1 -12 12 -25 14 -102 13
-35 0 -42 3 -37 16 5 12 19 15 66 13 48 -2 63 1 71 14 6 9 9 20 5 23 -5 5
-226 18 -291 17 -15 -1 -15 1 -3 14 8 7 20 12 28 11 7 -2 10 -2 5 0 -29 17 39
22 288 23 275 0 284 0 295 -20z m3310 -50 c0 -5 -4 -10 -10 -10 -5 0 -10 5
-10 10 0 6 5 10 10 10 6 0 10 -4 10 -10z m-3984 -40 c5 -5 52 -13 104 -17 l95
-8 -70 -6 -70 -5 68 -2 c84 -2 88 -20 5 -25 -35 -1 -2 -3 72 -3 74 0 167 -1
205 -2 39 0 119 1 179 4 120 6 239 -2 231 -17 -4 -5 -191 -9 -451 -9 l-445 0
2 46 c3 45 4 46 31 40 18 -3 27 -2 23 4 -8 13 8 13 21 0z m4039 -40 c-6 -9 -9
-9 -16 1 -10 17 0 34 13 21 6 -6 7 -16 3 -22z m-32 -25 c9 -21 3 -21 -103 -15
l-95 6 82 2 c45 1 85 7 88 12 9 14 22 12 28 -5z m-230 -12 c-13 -2 -33 -2 -45
0 -13 2 -3 4 22 4 25 0 35 -2 23 -4z"/>
<path d="M935 740 c4 -6 11 -8 16 -5 14 9 11 15 -7 15 -8 0 -12 -5 -9 -10z"/>
<path d="M1208 713 c7 -3 16 -2 19 1 4 3 -2 6 -13 5 -11 0 -14 -3 -6 -6z"/>
<path d="M6340 6392 c0 -16 32 -52 46 -52 9 0 14 11 14 30 0 27 -3 30 -30 30
-16 0 -30 -3 -30 -8z"/>
<path d="M2679 3703 c0 -44 0 -399 1 -480 0 -8 71 -12 265 -13 l265 -1 -2 273
-3 273 -262 3 -263 2 -1 -57z"/>
<path d="M620 786 c0 -12 11 -32 25 -44 31 -27 35 -27 35 -2 0 14 -7 20 -21
20 -16 0 -20 5 -16 19 3 12 -1 22 -9 25 -9 4 -14 -2 -14 -18z"/>
<path d="M0 30 c0 -27 3 -30 30 -30 34 0 40 19 14 44 -25 26 -44 20 -44 -14z"/>
<path d="M6350 41 c-16 -32 -12 -41 20 -41 27 0 30 3 30 30 0 23 -4 30 -20 30
-10 0 -24 -9 -30 -19z"/>
</g>
</svg>
